<?xml version="1.0" standalone="no"?>
<!DOCTYPE svg PUBLIC "-//W3C//DTD SVG 20010904//EN"
 "http://www.w3.org/TR/2001/REC-SVG-20010904/DTD/svg10.dtd">
<svg version="1.0" xmlns="http://www.w3.org/2000/svg"
 width="512.000000pt" height="512.000000pt" viewBox="0 0 512.000000 512.000000"
 preserveAspectRatio="xMidYMid meet">
<metadata>
Created by potrace 1.11, written by Peter Selinger 2001-2013
</metadata>
<g transform="translate(0.000000,512.000000) scale(0.100000,-0.100000)"
fill="#000000" stroke="none">
<path d="M3350 4030 c-153 -22 -233 -54 -705 -292 -1101 -552 -1515 -764
-1582 -810 -83 -57 -211 -187 -266 -270 -52 -80 -101 -187 -134 -293 -25 -84
-27 -102 -27 -270 0 -168 2 -186 27 -270 59 -191 146 -335 287 -468 108 -103
226 -173 367 -220 225 -74 433 -75 652 -1 101 34 2015 1001 2097 1060 278 198
435 519 421 864 -9 244 -97 464 -258 644 -99 111 -251 212 -400 267 -153 56
-337 79 -479 59z m365 -200 c236 -75 417 -231 519 -443 54 -113 75 -194 83
-317 14 -233 -68 -456 -230 -626 -38 -41 -100 -94 -136 -118 -62 -40 -935
-486 -952 -486 -19 0 -196 160 -265 239 -277 317 -438 721 -479 1192 l-6 76
458 230 c252 127 481 238 509 247 92 30 138 35 284 32 117 -3 159 -8 215 -26z"/>
<path d="M3416 3669 c-145 -21 -202 -107 -114 -172 26 -19 31 -20 96 -7 111
20 224 10 306 -28 96 -45 135 -40 160 20 28 66 -12 112 -131 153 -119 41 -204
50 -317 34z"/>
<path d="M3933 3378 c-36 -39 -36 -62 -3 -132 16 -36 30 -69 30 -74 0 -5 10
-18 23 -30 53 -50 142 -11 140 61 -1 39 -46 143 -75 174 -29 31 -87 31 -115 1z"/>
</g>
</svg>
