<svg xmlns="http://www.w3.org/2000/svg" viewBox="0 0 1316.48 655.77"><path fill="currentColor" d="M1058.58,123.35h0a8.29,8.29,0,0,1-1.11.08,7.53,7.53,0,0,1-7.39-6.23,32.86,32.86,0,0,0-2.32-5,7.5,7.5,0,1,1,12.91-7.64l.14.25c.83,1.46,3.56,6.49,4.08,10A7.5,7.5,0,0,1,1058.58,123.35Z" transform="translate(-90.84 -50.02)"/><path fill="currentColor" d="M1046.85,97.8a7.49,7.49,0,0,1-10.59-.29h0c-5.43-5.74-15.83-7.35-31.79-4.94a7.5,7.5,0,0,1-2.24-14.83c21.18-3.2,35.88-.1,44.93,9.47A7.5,7.5,0,0,1,1046.85,97.8Z" transform="translate(-90.84 -50.02)"/><path fill="currentColor" d="M1191.18,131h0a8.44,8.44,0,0,1-1.12.08,7.5,7.5,0,0,1-7.37-6.18v-.06a33.91,33.91,0,0,0-2.33-5,7.5,7.5,0,1,1,13.06-7.39c.82,1.46,3.56,6.49,4.08,10A7.51,7.51,0,0,1,1191.18,131Z" transform="translate(-90.84 -50.02)"/><path fill="currentColor" d="M1179.46,105.44h0a7.49,7.49,0,0,1-10.59-.29h0c-5.43-5.74-15.83-7.36-31.79-4.94a7.5,7.5,0,0,1-2.47-14.8l.23,0c21.18-3.2,35.87-.11,44.92,9.46A7.5,7.5,0,0,1,1179.46,105.44Z" transform="translate(-90.84 -50.02)"/><path fill="currentColor" d="M1396.87,561.58c0-.16,0-.31,0-.47a163.91,163.91,0,0,0-12.46-34.35q-2.16-4.38-4.51-8.42a61.5,61.5,0,0,0,26.82-60.17,112.29,112.29,0,0,0-206-43.57c-2.79-15.08-11.21-29.29-23.89-40.45a79.3,79.3,0,0,0,63.94-84.53s0-.06,0-.09l-14.15-153.65c-.1-2.53-.33-5.07-.67-7.62a79.31,79.31,0,0,0-139.53-40.07,79.31,79.31,0,0,0-141.73,12.43A67.24,67.24,0,0,0,890.19,79L758.31,88.5a68.42,68.42,0,0,0-9.49,1.37,79.28,79.28,0,0,0-120.28-2.46,79.27,79.27,0,0,0-104.35-8.9,78.83,78.83,0,0,0-38.78-5.65h0l-158,16.64a79.32,79.32,0,0,0,8.25,158.2,77.9,77.9,0,0,0,8.36-.44h.15l8.34,79.18a79.14,79.14,0,0,0,14.5,38,79,79,0,0,0-50.16-10.2L159.14,374.59a79.32,79.32,0,0,0,20.35,157.32h.15l10.21,79a79.29,79.29,0,0,0,148.49,27.3,79.39,79.39,0,0,0,73.77,63.24c1.33.07,2.64.1,4,.1a79.22,79.22,0,0,0,59.18-26.62A78.66,78.66,0,0,0,528.36,699c1.34.07,2.67.1,4,.1a79.34,79.34,0,0,0,75.78-56.16,79,79,0,0,0,47.23,20.42h0q3.15.25,6.28.25a79.18,79.18,0,0,0,59.65-27.14,79.33,79.33,0,0,0,78.59,69.32c1.52,0,3.05,0,4.58-.13a78.76,78.76,0,0,0,54.68-26.36,80.44,80.44,0,0,0,8.94-12.14c.11-.17.21-.33.3-.5l5.11,5.67a79.52,79.52,0,0,0,89.62,19.36l.77-.34a78.81,78.81,0,0,0,23.16-16c1.12-1.11,2.22-2.26,3.28-3.45a78.86,78.86,0,0,0,14.29-22.78,187.5,187.5,0,0,0,26.81,12.48,133.69,133.69,0,0,0,46.91,8,184.76,184.76,0,0,0,31.32-2.8c15.21-2.63,32.44-8.17,48.51-15.61a142,142,0,0,0,28.25-17.67,112.75,112.75,0,0,0,211-68.21C1397.26,564.06,1397.07,562.82,1396.87,561.58Zm-441-446.74A64.32,64.32,0,0,1,1077,102.57l.21.45a69.12,69.12,0,0,0-4.8,29.49,7.49,7.49,0,0,0,7.82,7.16A7.37,7.37,0,0,0,1083,139a7.5,7.5,0,0,0,4.41-7.16,60.53,60.53,0,0,1,.67-12.4,49.13,49.13,0,0,1,2.42-9.32,37.55,37.55,0,0,1,3.76-7.66,18.57,18.57,0,0,1,1.42-2c.14-.16.28-.32.41-.49a64.3,64.3,0,0,1,114.82,29.74v.09c.22,1.51.38,3,.49,4.56,0,.64.09,1.28.11,1.92l2.65,28.82,1.32,14.3,10.26,111.42a64.34,64.34,0,0,1-58.66,69.55c-1.84.16-3.67.24-5.48.24s-3.88-.09-5.79-.27a64,64,0,0,1-28.54-9.7h0a64.35,64.35,0,0,1-29.65-48c0-.28-.06-.57-.08-.86l-.58-6.83-.66-7.75-4.74-56a7.29,7.29,0,0,0-1.52-3.92,7.49,7.49,0,0,0-10.49-1.39,8,8,0,0,0-1.51,1.56l-1.42,4.06a8.34,8.34,0,0,0,0,1l5,58.45a63.44,63.44,0,0,1-25.06-1.67A64.37,64.37,0,0,1,1010.61,242a7.36,7.36,0,0,0-2.41-4A7.5,7.5,0,0,0,996,245.41a79.26,79.26,0,0,0,48.67,55.7,64.33,64.33,0,0,1-74.31,45.71,67.2,67.2,0,0,0-18.65-75.21,68.29,68.29,0,0,0-13.27-9,67.25,67.25,0,0,0-3.81-56.19h0l1.67-7.24a67.24,67.24,0,0,0,19.14-82.63ZM1099.12,345a160.55,160.55,0,0,0-44.1,1.59,146.3,146.3,0,0,0-69.86,32c-6.6,5.52-12.6,10.84-18.07,16.36a78.89,78.89,0,0,0-29.29-12.4,67.52,67.52,0,0,0,25.13-21.79c.69.18,1.39.35,2.09.51a79.32,79.32,0,0,0,94.14-56.14,78,78,0,0,0,14.06,1.27,76.52,76.52,0,0,0,9.69-.61A79,79,0,0,0,1099.12,345ZM759.37,103.45l2-.15,26.88-1.93,13.23-1L891.27,94A52.28,52.28,0,0,1,946,157.41l0,.16a0,0,0,0,0,0,0s0,.06,0,.09l0,.12A52.25,52.25,0,0,1,923,190.27l-.45.29a67.07,67.07,0,0,0-51.75-18.95l-38.88,2.79-7.49.54-7.48.54-22.52,1.62a7.52,7.52,0,0,0-5.78,3.44,7.42,7.42,0,0,0-1.17,4.58,7.5,7.5,0,0,0,5.1,6.57,7.24,7.24,0,0,0,2.92.37h.59L818,190.39l7.48-.54,7.49-.54,38.88-2.79A52.1,52.1,0,0,1,907,196.92a53.11,53.11,0,0,1,6.61,5.93,50.42,50.42,0,0,1,5,6.2h0a52,52,0,0,1,9.12,27.05h0a51.72,51.72,0,0,1-3.37,21.14l-1.45-.35a66.85,66.85,0,0,0-15-1.73c-1.7,0-3.41.06-5.11.18L838.08,260l-7.48.54-7.48.54-16.36,1.18-6.17.44a7.49,7.49,0,0,0-.74,14.86,6.94,6.94,0,0,0,1.82.1l7.34-.53L824.2,276l15-1.08L904,270.32l.6,0a51.54,51.54,0,0,1,12.09.65c1,.17,2,.36,2.92.59a47.48,47.48,0,0,1,5,1.41,49.15,49.15,0,0,1,7,3,52.27,52.27,0,0,1,24.51,66.29c-.56,1.37-1.18,2.72-1.87,4.06a52.34,52.34,0,0,1-42.73,28.27h0L821.82,381l-13.31,1-27.06,2-.93.06-.93.07A52.23,52.23,0,0,1,731.11,359a79.13,79.13,0,0,0,27.3-55.77l8.44-158.7a79,79,0,0,0-8.93-41Zm123.2,288.24a79.16,79.16,0,0,0-26.34,24.7l-3.73-4.14a79.14,79.14,0,0,0-22-16.82Zm-127.45,4.25c-2.16,1.17-4.28,2.44-6.34,3.8a76.75,76.75,0,0,0-3.15-7.7A65.66,65.66,0,0,0,755.12,395.94ZM571.32,78q1.71,0,3.45.09A64.17,64.17,0,0,1,619.48,99.7a78.74,78.74,0,0,0-11.09,36.4l-.15,2.9c-2,0-3.94-.18-4.85-.89A7.53,7.53,0,0,0,594.16,150c4.07,3.16,8.93,4.08,13.82,4.08a56.52,56.52,0,0,0,7-.49v-.12a7,7,0,0,0,1.65-.1,1.36,1.36,0,0,0,.35-.07,3.22,3.22,0,0,0,.61-.16l.6-.21c.2-.08.41-.18.61-.28l.51-.29.1-.07c.19-.12.37-.25.55-.39s.36-.3.53-.45a7.37,7.37,0,0,0,.85-1,6.86,6.86,0,0,0,1.13-2.18,2.26,2.26,0,0,0,.11-.37,1.14,1.14,0,0,0,.07-.32,1.8,1.8,0,0,0,.08-.39.74.74,0,0,0,0-.21,4.43,4.43,0,0,0,.06-.51v-.11l.5-9.44a64.15,64.15,0,0,1,9.9-31A65.45,65.45,0,0,1,638,99.38a64.29,64.29,0,0,1,90.5-8.7,65.07,65.07,0,0,1,5,4.55,64.28,64.28,0,0,1,18.34,48.49h0l-8.43,158.7a64.34,64.34,0,0,1-31.06,51.67q-1.05.65-2.13,1.23a63.69,63.69,0,0,1-23.25,7.51h0a64.17,64.17,0,0,1-11.21.38,63.24,63.24,0,0,1-9.64-1.25h0a64.39,64.39,0,0,1-34.74-20l-.28-.32a64,64,0,0,1-16.11-46.1l.11-2.07a7.4,7.4,0,0,0-.28-2.48,4,4,0,0,0-.16-.49,7.14,7.14,0,0,0-1.32-2.3c-.08-.1-.17-.19-.26-.29a4.36,4.36,0,0,0-.43-.43l-.18-.15A4.23,4.23,0,0,0,612,287l-.08-.05a5.31,5.31,0,0,0-.63-.42c-.16-.09-.32-.18-.49-.26l-.19-.08a7.42,7.42,0,0,0-2.66-.65v-.36c-5.82-1.79-14.44-2.25-20.13,0a7.51,7.51,0,0,0,5.44,14,16.81,16.81,0,0,1,6.55-.33A78.52,78.52,0,0,0,612.5,342,64.48,64.48,0,0,1,563,365.32c-1.17,0-2.34,0-3.52-.09a64.19,64.19,0,0,1-50.81-29.64,79.28,79.28,0,0,0,1.52-25.78L502.1,233l-.25-2.37H502l.24,0a79.28,79.28,0,0,0,70.34-87.12v-.06a79.06,79.06,0,0,0-33.49-56.74A64.08,64.08,0,0,1,571.32,78ZM359,245.67l27.09-2.85a7.5,7.5,0,0,0-1.57-14.92L350,231.54l-7.61.8a64.25,64.25,0,0,1-70.68-57.1s0-.08,0-.12a64.33,64.33,0,0,1,57.22-70.7L487,87.77a64.32,64.32,0,0,1,16,127.61c-.87.12-1.74.23-2.62.32l-7.34.77h-.24L488,217l-11.06,1.17a7.51,7.51,0,0,0,.78,15h.79l8.49-.89.13,1.19,8.2,78A64.31,64.31,0,0,1,367.37,324.9Zm37.09,143.5c-.8.3-1.59.61-2.38.94-.77-1.21-1.58-2.39-2.41-3.54Q393.64,388,396.09,389.17Zm-55.43,151L337,511.5h.14c1.69-.22,3.37-.49,5-.82Zm-5.48-43.49v0H335c-1.17-7.75-3.23-19-6-24.37a7.5,7.5,0,0,0-13.51,6.51c0,.11.1.21.16.32,2.07,4,4.45,18.11,5.48,26.82v.08l11.17,86.39a64.31,64.31,0,1,1-127.56,16.5l-11.18-86.39a7.25,7.25,0,0,0-.69-2.31c-1-9.42-1-20.38-.1-25.4A7.52,7.52,0,0,0,178,492c-1.17,6.18-1.15,16.16-.51,25a64.32,64.32,0,0,1-16.42-127.54l157.61-20.38a64.33,64.33,0,0,1,39.56,119.69,63.49,63.49,0,0,1-15.35,6.31A62.65,62.65,0,0,1,335.18,496.65Zm269.17-32.42h0l-3.47,70.6v.35L597.94,594h0l-1.43,29c-.1,2-.29,3.94-.57,5.88h0A64.31,64.31,0,0,1,484.61,663l-.32-.36a78.82,78.82,0,0,0,11-36.46l.15-2.92c2,0,3.94.16,4.85.87a7.5,7.5,0,1,0,9.18-11.87c-6-4.66-13.79-4.39-20.82-3.52v.13a8.34,8.34,0,0,0-1,0l-.6.09a2.66,2.66,0,0,0-.39.07h-.11a3.25,3.25,0,0,0-.42.11h-.08l-.21.07-.36.13c-.22.09-.43.19-.64.3l-.25.13a7.36,7.36,0,0,0-1.72,1.37c-.13.14-.26.28-.38.43l-.34.44a7.72,7.72,0,0,0-.59,1,6.57,6.57,0,0,0-.26.61,4,4,0,0,0-.15.45,1.71,1.71,0,0,0-.09.3,4.7,4.7,0,0,0-.12.51,4.29,4.29,0,0,0-.07.5v.51l-.46,9.45a63.91,63.91,0,0,1-5.57,23.15,63.15,63.15,0,0,1-4.22,7.86,61.14,61.14,0,0,1-4.75,6.56A64.28,64.28,0,0,1,351.8,619.06l5.58-113a79.25,79.25,0,0,0,43.23-102.55,64.36,64.36,0,0,1,71.22,17.18,62.72,62.72,0,0,1,5,6.36c.21.31.43.61.63.93s.42.63.61.94c.9,1.4,1.75,2.84,2.53,4.32.28.5.54,1,.8,1.53a63.92,63.92,0,0,1,6.71,31.89l-.1,2v.55a3.75,3.75,0,0,0,0,.67.17.17,0,0,0,0,.1,3.68,3.68,0,0,0,.08.58,2.69,2.69,0,0,0,.16.68,4.13,4.13,0,0,0,.13.41,6.22,6.22,0,0,0,.29.71c.05.11.1.22.16.33a5.63,5.63,0,0,0,.37.62,4.43,4.43,0,0,0,.29.42,7.42,7.42,0,0,0,1.09,1.15,3.94,3.94,0,0,0,.45.36h.08c.21.14.42.28.64.41s.32.18.49.26h.07a7.44,7.44,0,0,0,2.78.69V477a38,38,0,0,0,10.65,1.49,26.58,26.58,0,0,0,9.48-1.52,7.52,7.52,0,0,0-5.49-14,17,17,0,0,1-6.55.36,78.88,78.88,0,0,0-12.82-43.06,64.27,64.27,0,0,1,49.69-23.58c1.07,0,2.14,0,3.21.08a64.37,64.37,0,0,1,61.09,67.49Zm-7.28-58.3a79.22,79.22,0,0,0-116.24,2.45,79.26,79.26,0,0,0-21.79-16,79.47,79.47,0,0,0,43.66-39.8,79,79,0,0,0,56,27.59h0c1.44.08,2.88.12,4.31.12A78.77,78.77,0,0,0,616,360a77.2,77.2,0,0,0,6-6,79.7,79.7,0,0,0,7,6.45,79.36,79.36,0,0,0-31.88,45.48ZM730.2,530.84l-4.55,58.43A64.32,64.32,0,0,1,611.43,624.6c0-.3,0-.61.06-.91L619.33,465a79.05,79.05,0,0,0-9.76-42.18v0l.15-2a64.27,64.27,0,0,1,33-51.3,78.34,78.34,0,0,0,20.07,7.14,7.43,7.43,0,0,0-1.81,4.87,7.5,7.5,0,0,0,7.5,7.5,42.09,42.09,0,0,1,30.87,13.53,7.5,7.5,0,0,0,11-10.17,57.13,57.13,0,0,0-21.61-14.61,78.25,78.25,0,0,0,20.84-5.47A64.18,64.18,0,0,1,738,430.69s0,.09,0,.13l0,.53-7.76,99.43Zm265,94.34h0a64.16,64.16,0,0,1-16.09,36.7c-.62.7-1.26,1.38-1.91,2l.36.85a7.48,7.48,0,0,0-2.17,1.38,64.08,64.08,0,0,1-19.07,12.1h-.09a64.44,64.44,0,0,1-79.17-24.32l-1.91-2.12c.07-.21.15-.43.22-.65a79.31,79.31,0,0,0,3.78-28.94,46.46,46.46,0,0,0-11.92-29.71,7.19,7.19,0,0,0-2.11-1.6,7.51,7.51,0,0,0-6-.39,7,7,0,0,0-1.52.76,6.75,6.75,0,0,0-1,.76,7.5,7.5,0,0,0-.47,10.6,30.39,30.39,0,0,1,2.26,2.8,31.59,31.59,0,0,1,5.72,16.77v.63a64.82,64.82,0,0,1-1,15.67q-.21,1.14-.48,2.28a61.81,61.81,0,0,1-1.79,6.39q-.85,2.49-1.9,4.9c-.41.93-.84,1.86-1.28,2.77a64.29,64.29,0,0,1-121.89-24.71l-.88-15.59v0a79.52,79.52,0,0,0,5.72-24.07L752.92,432a79,79,0,0,0-.4-16.43,63.51,63.51,0,0,1,36-13.85,7.4,7.4,0,0,0,2.13-.43l.12.35a64.11,64.11,0,0,1,50.64,20.7l7.34,8.13,5.62,6.24,5.85,6.48,31.18,34.55a7.48,7.48,0,0,0,8.46,1.89,7.3,7.3,0,0,0,2.13-1.34,7.51,7.51,0,0,0,.54-10.59L866.69,428a64.29,64.29,0,0,1,51.89-31.79c1.23-.07,2.45-.11,3.67-.11a64.25,64.25,0,0,1,34.65,10.19,65.4,65.4,0,0,1,11.56,9.47,64.21,64.21,0,0,1,18,41l9,158.67A64.28,64.28,0,0,1,995.25,625.18Zm195.78-16a138.06,138.06,0,0,1-11,10.24,129,129,0,0,1-28.16,18.2,187.38,187.38,0,0,1-44.77,14.44c-26.52,4.57-50.22,3.07-70.45-4.46A172.41,172.41,0,0,1,1009,634.42a78.77,78.77,0,0,0,1.34-19.85l-9-158.67a79,79,0,0,0-22.8-51.3c4.84-4.81,10.2-9.54,16.18-14.53a131.43,131.43,0,0,1,62.8-28.69c20.17-3.48,39.74-2.9,58.16,1.74l5.53,1.4h0A79,79,0,0,0,1151.71,375a65.82,65.82,0,0,1,11.53,7.39h.06a6.78,6.78,0,0,0,.73.69l.12.1a66.52,66.52,0,0,1,10.52,10.43,53.69,53.69,0,0,1,11.33,24.1,46.08,46.08,0,0,1,.69,9.23,45.2,45.2,0,0,1-6.71,22.31,51.17,51.17,0,0,1-4,5.7c-.16.19-.31.39-.48.58a53.08,53.08,0,0,1-5.56,5.86,54.49,54.49,0,0,1-67.36,4.45c-1-.7-2-1.45-3-2.23-.2-.16-.4-.3-.61-.44a37.34,37.34,0,0,0-5.17-2.7,32.25,32.25,0,0,0-12.42-2.78l-.66.35.38-.35a20,20,0,0,0-11.31,3.51c-.06,0-6.63,4.4-16.49.69a7.5,7.5,0,0,0-7,13.15c5.59,4,6.76,7.32,6.69,9.53l-1.32,3.88a6.82,6.82,0,0,0-.39,2,59.49,59.49,0,0,0-4,32.88c2.65,15.35,9.34,27.52,19.49,35.62a13.42,13.42,0,0,1,3.13,9.12,20.66,20.66,0,0,1-.23,3,36.68,36.68,0,0,0-1.42,5.85,7.51,7.51,0,0,0,5.63,8.48,7.11,7.11,0,0,0,1.78.22,7.52,7.52,0,0,0,7.12-5.16,44.72,44.72,0,0,0,1.43-5.46,8.68,8.68,0,0,1,2.94-4,8.85,8.85,0,0,1,5.35-1.33,73.26,73.26,0,0,0,11.36.85A101.5,101.5,0,0,0,1121,569a7.52,7.52,0,0,0,6.12-8.67,4.54,4.54,0,0,0-.12-.53,7.48,7.48,0,0,0-8.55-5.58,77.49,77.49,0,0,1-21.39,1c-1.2-.13-2.35-.3-3.47-.5a38,38,0,0,1-16.67-7,33.24,33.24,0,0,1-2.79-2.37c-7.12-6.75-10.54-15.94-12-24.67-2-11.58,1.14-24.14,8.61-34.47a51.16,51.16,0,0,1,13.87-13.13,24.18,24.18,0,0,1,6,2.47,69.43,69.43,0,0,0,92.71-6.34c.29-.29.57-.58.85-.88,1.49,1,3,2,4.43,3.05a76.44,76.44,0,0,1,9.84,8.64c8.74,9.12,14.68,19.91,16.49,30.36.76,4.35,1.32,8.24,1.8,12.12.52,4.24.94,8.45,1.36,13.23v.16a6.55,6.55,0,0,0,.2,1.16h-.14c0,.34,0,.68,0,1a131.17,131.17,0,0,1-3.39,31.21h0c-2.61,11.3-11.76,26.94-22.5,38.57C1191.86,608.3,1191.45,608.74,1191,609.18Zm108.65,65.59a97.85,97.85,0,0,1-101.16-51.86c1.34-1.32,2.47-2.46,3.36-3.39,13.15-13.72,24.21-32.57,27.53-46.9,1.11-4.8,4.68-21.81,3.59-37.8v-.12c0-.29,0-.57-.08-.85A51.37,51.37,0,0,1,1276,548.52c.55.54,1.08,1.1,1.6,1.67a7.5,7.5,0,0,0,11.06-10.12A66.55,66.55,0,0,0,1231.34,519c-.46-3.5-1-7.08-1.67-11-3-17.42-14-34.54-30.41-47.18a97.34,97.34,0,0,1,192.65-.4,44.28,44.28,0,0,1,.5,6.4,46.48,46.48,0,0,1-20.78,39.06,45,45,0,0,1-6.63,3.65,47.44,47.44,0,0,1-7.52,2.61c-1.52.38-3.08.69-4.65.92-1.15.17-2.29.3-3.43.38s-2.26.12-3.38.12a46.44,46.44,0,0,1-45.84-39.59,7.5,7.5,0,0,0-14.9,1.72c0,.16,0,.32.07.48a61.42,61.42,0,0,0,81.1,48.91,152.25,152.25,0,0,1,15.73,39A97.84,97.84,0,0,1,1299.68,674.77Z" transform="translate(-90.84 -50.02)"/><path fill="currentColor" d="M922,123l0,0a7.51,7.51,0,0,1-10.6-.29c-5.4-5.71-15.84-7.38-31.8-5a7.5,7.5,0,0,1-2.47-14.8l.23,0c21.17-3.2,35.87-.1,44.92,9.47A7.49,7.49,0,0,1,922,123Z" transform="translate(-90.84 -50.02)"/><path fill="currentColor" d="M900.33,217.49h0a7.49,7.49,0,0,1-10.59-.29h0c-5.43-5.74-15.83-7.35-31.79-4.94a7.5,7.5,0,0,1-2.24-14.83c21.18-3.2,35.87-.1,44.92,9.47A7.49,7.49,0,0,1,900.33,217.49Z" transform="translate(-90.84 -50.02)"/><path fill="currentColor" d="M945.17,327.39a8.44,8.44,0,0,1-1.12.08,7.5,7.5,0,0,1-7.38-6.24,33.91,33.91,0,0,0-2.33-5,7.5,7.5,0,0,1,13.06-7.38c.82,1.46,3.56,6.49,4.08,10a7.5,7.5,0,0,1-6.29,8.54Z" transform="translate(-90.84 -50.02)"/><path fill="currentColor" d="M933.46,301.84a7.49,7.49,0,0,1-10.59-.29h0a15.09,15.09,0,0,0-2.46-2.09c-3.78-2.59-9.13-3.89-16.17-3.93a86.22,86.22,0,0,0-13.16,1.08,7.5,7.5,0,0,1-2.24-14.83,99.5,99.5,0,0,1,14.63-1.22,56.33,56.33,0,0,1,15,1.8,32.38,32.38,0,0,1,15.3,8.89A7.5,7.5,0,0,1,933.46,301.84Z" transform="translate(-90.84 -50.02)"/><path fill="currentColor" d="M502,230.64h-.14l.25,2.37.13-2.4Zm0,0h-.14l.25,2.37.13-2.4Zm0,0h-.14l.25,2.37.13-2.4Zm0,0h-.14l.25,2.37.13-2.4Zm0,0h-.14l.25,2.37.13-2.4Zm0,0h-.14l.25,2.37.13-2.4Z" transform="translate(-90.84 -50.02)"/><path fill="currentColor" d="M912,243.05h0a8.44,8.44,0,0,1-1.12.08h-.12a7.49,7.49,0,0,1-7.25-6.17v-.06a33.91,33.91,0,0,0-2.33-5,7.5,7.5,0,0,1,13.06-7.38l.59,1.06c.43.83,1,1.94,1.56,3.17a23.87,23.87,0,0,1,1.93,5.77A7.5,7.5,0,0,1,912,243.05Z" transform="translate(-90.84 -50.02)"/><path fill="currentColor" d="M933.71,148.53h0a6.23,6.23,0,0,1-1.06.09h-.06a7.51,7.51,0,0,1-7.37-6.19v-.05a33.91,33.91,0,0,0-2.33-5,7.5,7.5,0,1,1,12.81-7.8,4.49,4.49,0,0,1,.24.42c.17.3.42.75.72,1.31,1.13,2.15,2.94,5.9,3.36,8.69A7.5,7.5,0,0,1,933.71,148.53Z" transform="translate(-90.84 -50.02)"/><path fill="currentColor" d="M740.35,143.29a7.5,7.5,0,0,1-15,0,42.65,42.65,0,0,0-1.09-9.55,7.5,7.5,0,0,1,14.61-3.4A57.61,57.61,0,0,1,740.35,143.29Z" transform="translate(-90.84 -50.02)"/><path fill="currentColor" d="M724.84,115.28a7.49,7.49,0,0,1-10.58-.41l0,0c-.82-.88-1.67-1.73-2.55-2.53a42,42,0,0,0-28.31-11,7.5,7.5,0,0,1,0-15A57.11,57.11,0,0,1,722.58,102c.92.87,1.82,1.78,2.69,2.72A7.5,7.5,0,0,1,724.84,115.28Z" transform="translate(-90.84 -50.02)"/><path fill="currentColor" d="M602.09,106.1a7.5,7.5,0,0,1-6.51,3.76,7.39,7.39,0,0,1-3.73-1A42,42,0,0,0,571,103.31a7.5,7.5,0,0,1,0-15,57,57,0,0,1,28.36,7.55A7.52,7.52,0,0,1,602.09,106.1Z" transform="translate(-90.84 -50.02)"/><path fill="currentColor" d="M546.07,154.54a7.5,7.5,0,0,1-15,0A42,42,0,0,0,530,145a7.5,7.5,0,0,1,14.56-3.62c0,.08,0,.15.05.23A56.85,56.85,0,0,1,546.07,154.54Z" transform="translate(-90.84 -50.02)"/><path fill="currentColor" d="M530.57,126.53A7.5,7.5,0,0,1,520,126.1a42.18,42.18,0,0,0-30.9-13.53,7.5,7.5,0,0,1,0-15A57,57,0,0,1,531,115.93,7.51,7.51,0,0,1,530.57,126.53Z" transform="translate(-90.84 -50.02)"/><path fill="currentColor" d="M1366.2,446.27A7.5,7.5,0,0,1,1357,441h0a14.17,14.17,0,0,0-4.27-7A7.5,7.5,0,0,1,1363,423.06a29.41,29.41,0,0,1,8.47,14,7.5,7.5,0,0,1-5.26,9.21Z" transform="translate(-90.84 -50.02)"/><path fill="currentColor" d="M1341.26,414.48a7.51,7.51,0,0,1-10.6-.42h0c-5.32-5.74-20.48-10.42-33.8-10.42a7.5,7.5,0,0,1,0-15c15.26,0,35.56,5.23,44.81,15.24a7.5,7.5,0,0,1-.41,10.6Z" transform="translate(-90.84 -50.02)"/><path fill="currentColor" d="M1173.32,433.39a7.5,7.5,0,1,1-15,0,42.07,42.07,0,0,0-1.09-9.55,7.51,7.51,0,0,1,14.62-3.4A57.6,57.6,0,0,1,1173.32,433.39Z" transform="translate(-90.84 -50.02)"/><path fill="currentColor" d="M1157.82,405.39a7.51,7.51,0,0,1-10.6-.44,41.11,41.11,0,0,0-4.24-4,42.08,42.08,0,0,0-26.62-9.53,7.5,7.5,0,0,1,0-15,57.12,57.12,0,0,1,37.75,14.32,53.88,53.88,0,0,1,4.14,4,7.49,7.49,0,0,1-.38,10.6Z" transform="translate(-90.84 -50.02)"/><path fill="currentColor" d="M725.45,430.87V431a7.5,7.5,0,0,1-7.5,7.5c-.22,0-.43,0-.64,0a7.5,7.5,0,0,1-6.86-7.47,42.65,42.65,0,0,0-1.09-9.55A7.51,7.51,0,1,1,724,418.1a55.28,55.28,0,0,1,1,5.56A54.33,54.33,0,0,1,725.45,430.87Z" transform="translate(-90.84 -50.02)"/><path fill="currentColor" d="M974.66,466.49a7.5,7.5,0,1,1-15,0,42.65,42.65,0,0,0-1.09-9.55,7.5,7.5,0,1,1,14.61-3.4A57.61,57.61,0,0,1,974.66,466.49Z" transform="translate(-90.84 -50.02)"/><path fill="currentColor" d="M959.15,438.49a7.53,7.53,0,0,1-10.6-.43,42.18,42.18,0,0,0-30.86-13.54,7.5,7.5,0,0,1,0-15,57.17,57.17,0,0,1,41.89,18.37,1.92,1.92,0,0,1,.19.23A7.48,7.48,0,0,1,959.15,438.49Z" transform="translate(-90.84 -50.02)"/><path fill="currentColor" d="M859,474a4.12,4.12,0,0,1-.4.33,7.37,7.37,0,0,1-4.57,1.56,7.57,7.57,0,0,1-2.89-.58,7.38,7.38,0,0,1-2.72-2l-5.24-5.91h0L838,461.6a7.5,7.5,0,0,1,.64-10.59h0a7.39,7.39,0,0,1,5-1.88,7.53,7.53,0,0,1,5.56,2.53l1.48,1.67,7.18,8.11,1.71,1.93A7.5,7.5,0,0,1,859,474Z" transform="translate(-90.84 -50.02)"/><path fill="currentColor" d="M833.24,444.26a7.51,7.51,0,0,1-10.59-.43,42,42,0,0,0-30.87-13.54,7.5,7.5,0,0,1,0-15,35.57,35.57,0,0,1,4,.15,57.12,57.12,0,0,1,37.9,18.22A7.51,7.51,0,0,1,833.24,444.26Z" transform="translate(-90.84 -50.02)"/><path fill="currentColor" d="M363.77,408a7.51,7.51,0,0,1-10.6-.44A42.07,42.07,0,0,0,322.31,394a7.5,7.5,0,1,1,0-15A57.13,57.13,0,0,1,364.2,397.4,7.5,7.5,0,0,1,363.77,408Z" transform="translate(-90.84 -50.02)"/><path fill="currentColor" d="M379.28,436a7.5,7.5,0,0,1-14.62,2.34,7.26,7.26,0,0,1-.38-2.34,42.65,42.65,0,0,0-1.09-9.55,7.5,7.5,0,0,1,13.19-6.34,7.39,7.39,0,0,1,1.42,2.94A57.61,57.61,0,0,1,379.28,436Z" transform="translate(-90.84 -50.02)"/><path fill="currentColor" d="M593.86,464.49a7.5,7.5,0,0,1-15,0,42.65,42.65,0,0,0-1.09-9.55,7.5,7.5,0,0,1,14.54-3.66h0a2.33,2.33,0,0,1,.07.25A57.61,57.61,0,0,1,593.86,464.49Z" transform="translate(-90.84 -50.02)"/><path fill="currentColor" d="M578.36,436.49a7.51,7.51,0,0,1-10.6-.43,42.13,42.13,0,0,0-30.87-13.54,7.5,7.5,0,0,1,0-15,57.14,57.14,0,0,1,41.9,18.37A7.51,7.51,0,0,1,578.36,436.49Z" transform="translate(-90.84 -50.02)"/><path fill="currentColor" d="M476.1,454.8c-.1,1-.18,2-.23,3.09l-.56,11.24a7.44,7.44,0,0,1-5.88,2.86,7.35,7.35,0,0,1-1.75-.21,7.5,7.5,0,0,1-5.75-7.29,42.06,42.06,0,0,0-.95-8.88q.21-3.08.65-6.09a7.5,7.5,0,0,1,13.82,2C475.7,452.62,475.92,453.71,476.1,454.8Z" transform="translate(-90.84 -50.02)"/><path fill="currentColor" d="M461.42,436.49a7.51,7.51,0,0,1-10.59-.43A42.14,42.14,0,0,0,420,422.52a7.5,7.5,0,0,1,0-15,57.13,57.13,0,0,1,41.89,18.37,7.5,7.5,0,0,1-.47,10.6Z" transform="translate(-90.84 -50.02)"/></svg>